<svg xmlns="http://www.w3.org/2000/svg" version="1.1" xmlns:xlink="http://www.w3.org/1999/xlink" xmlns:svgjs="http://svgjs.dev/svgjs" width="1100" height="560" preserveAspectRatio="none" viewBox="0 0 1100 560">
    <g mask="url(&quot;#SvgjsMask10776&quot;)" fill="none">
        <rect width="1100" height="560" x="0" y="0" fill="url(&quot;#SvgjsLinearGradient10777&quot;)"></rect>
        <path d="M56.61 174.7L121.56 212.2L121.56 287.2L56.61 324.7L-8.34 287.2L-8.34 212.2zM121.56 287.2L186.52 324.7L186.52 399.7L121.56 437.2L56.61 399.7L56.61 324.7zM56.61 399.7L121.56 437.2L121.56 512.2L56.61 549.7L-8.34 512.2L-8.34 437.2zM121.56 512.2L186.52 549.7L186.52 624.7L121.56 662.2L56.61 624.7L56.61 549.7zM186.52 -50.3L251.47 -12.8L251.47 62.2L186.52 99.7L121.56 62.2L121.56 -12.8zM186.52 174.7L251.47 212.2L251.47 287.2L186.52 324.7L121.56 287.2L121.56 212.2zM251.47 287.2L316.43 324.7L316.43 399.7L251.47 437.2L186.52 399.7L186.52 324.7zM316.43 174.7L381.38 212.2L381.38 287.2L316.43 324.7L251.47 287.2L251.47 212.2zM381.38 287.2L446.33 324.7L446.33 399.7L381.38 437.2L316.43 399.7L316.43 324.7zM446.33 -50.3L511.29 -12.8L511.29 62.2L446.33 99.7L381.38 62.2L381.38 -12.8zM446.33 174.7L511.29 212.2L511.29 287.2L446.33 324.7L381.38 287.2L381.38 212.2zM511.29 287.2L576.24 324.7L576.24 399.7L511.29 437.2L446.33 399.7L446.33 324.7zM446.33 399.7L511.29 437.2L511.29 512.2L446.33 549.7L381.38 512.2L381.38 437.2zM511.29 512.2L576.24 549.7L576.24 624.7L511.29 662.2L446.33 624.7L446.33 549.7zM576.24 -50.3L641.19 -12.8L641.19 62.2L576.24 99.7L511.29 62.2L511.29 -12.8zM641.19 62.2L706.15 99.7L706.15 174.7L641.19 212.2L576.24 174.7L576.24 99.7zM641.19 287.2L706.15 324.7L706.15 399.7L641.19 437.2L576.24 399.7L576.24 324.7zM576.24 399.7L641.19 437.2L641.19 512.2L576.24 549.7L511.29 512.2L511.29 437.2zM706.15 174.7L771.1 212.2L771.1 287.2L706.15 324.7L641.19 287.2L641.19 212.2zM901.01 287.2L965.96 324.7L965.96 399.7L901.01 437.2L836.05 399.7L836.05 324.7zM836.05 399.7L901.01 437.2L901.01 512.2L836.05 549.7L771.1 512.2L771.1 437.2zM901.01 512.2L965.96 549.7L965.96 624.7L901.01 662.2L836.05 624.7L836.05 549.7zM965.96 -50.3L1030.92 -12.8L1030.92 62.2L965.96 99.7L901.01 62.2L901.01 -12.8zM1030.92 287.2L1095.87 324.7L1095.87 399.7L1030.92 437.2L965.96 399.7L965.96 324.7zM1095.87 174.7L1160.82 212.2L1160.82 287.2L1095.87 324.7L1030.92 287.2L1030.92 212.2zM1160.82 287.2L1225.78 324.7L1225.78 399.7L1160.82 437.2L1095.87 399.7L1095.87 324.7zM1095.87 399.7L1160.82 437.2L1160.82 512.2L1095.87 549.7L1030.92 512.2L1030.92 437.2z" stroke="url(&quot;#SvgjsLinearGradient10778&quot;)" stroke-width="2"></path>
        <path d="M49.11 174.7 a7.5 7.5 0 1 0 15 0 a7.5 7.5 0 1 0 -15 0zM114.06 212.2 a7.5 7.5 0 1 0 15 0 a7.5 7.5 0 1 0 -15 0zM114.06 287.2 a7.5 7.5 0 1 0 15 0 a7.5 7.5 0 1 0 -15 0zM49.11 324.7 a7.5 7.5 0 1 0 15 0 a7.5 7.5 0 1 0 -15 0zM-15.84 287.2 a7.5 7.5 0 1 0 15 0 a7.5 7.5 0 1 0 -15 0zM-15.84 212.2 a7.5 7.5 0 1 0 15 0 a7.5 7.5 0 1 0 -15 0zM179.02 324.7 a7.5 7.5 0 1 0 15 0 a7.5 7.5 0 1 0 -15 0zM179.02 399.7 a7.5 7.5 0 1 0 15 0 a7.5 7.5 0 1 0 -15 0zM114.06 437.2 a7.5 7.5 0 1 0 15 0 a7.5 7.5 0 1 0 -15 0zM49.11 399.7 a7.5 7.5 0 1 0 15 0 a7.5 7.5 0 1 0 -15 0zM114.06 512.2 a7.5 7.5 0 1 0 15 0 a7.5 7.5 0 1 0 -15 0zM49.11 549.7 a7.5 7.5 0 1 0 15 0 a7.5 7.5 0 1 0 -15 0zM-15.84 512.2 a7.5 7.5 0 1 0 15 0 a7.5 7.5 0 1 0 -15 0zM-15.84 437.2 a7.5 7.5 0 1 0 15 0 a7.5 7.5 0 1 0 -15 0zM179.02 549.7 a7.5 7.5 0 1 0 15 0 a7.5 7.5 0 1 0 -15 0zM179.02 624.7 a7.5 7.5 0 1 0 15 0 a7.5 7.5 0 1 0 -15 0zM114.06 662.2 a7.5 7.5 0 1 0 15 0 a7.5 7.5 0 1 0 -15 0zM49.11 624.7 a7.5 7.5 0 1 0 15 0 a7.5 7.5 0 1 0 -15 0zM179.02 -50.3 a7.5 7.5 0 1 0 15 0 a7.5 7.5 0 1 0 -15 0zM243.97 -12.8 a7.5 7.5 0 1 0 15 0 a7.5 7.5 0 1 0 -15 0zM243.97 62.2 a7.5 7.5 0 1 0 15 0 a7.5 7.5 0 1 0 -15 0zM179.02 99.7 a7.5 7.5 0 1 0 15 0 a7.5 7.5 0 1 0 -15 0zM114.06 62.2 a7.5 7.5 0 1 0 15 0 a7.5 7.5 0 1 0 -15 0zM114.06 -12.8 a7.5 7.5 0 1 0 15 0 a7.5 7.5 0 1 0 -15 0zM179.02 174.7 a7.5 7.5 0 1 0 15 0 a7.5 7.5 0 1 0 -15 0zM243.97 212.2 a7.5 7.5 0 1 0 15 0 a7.5 7.5 0 1 0 -15 0zM243.97 287.2 a7.5 7.5 0 1 0 15 0 a7.5 7.5 0 1 0 -15 0zM308.93 324.7 a7.5 7.5 0 1 0 15 0 a7.5 7.5 0 1 0 -15 0zM308.93 399.7 a7.5 7.5 0 1 0 15 0 a7.5 7.5 0 1 0 -15 0zM243.97 437.2 a7.5 7.5 0 1 0 15 0 a7.5 7.5 0 1 0 -15 0zM308.93 174.7 a7.5 7.5 0 1 0 15 0 a7.5 7.5 0 1 0 -15 0zM373.88 212.2 a7.5 7.5 0 1 0 15 0 a7.5 7.5 0 1 0 -15 0zM373.88 287.2 a7.5 7.5 0 1 0 15 0 a7.5 7.5 0 1 0 -15 0zM438.83 324.7 a7.5 7.5 0 1 0 15 0 a7.5 7.5 0 1 0 -15 0zM438.83 399.7 a7.5 7.5 0 1 0 15 0 a7.5 7.5 0 1 0 -15 0zM373.88 437.2 a7.5 7.5 0 1 0 15 0 a7.5 7.5 0 1 0 -15 0zM438.83 -50.3 a7.5 7.5 0 1 0 15 0 a7.5 7.5 0 1 0 -15 0zM503.79 -12.8 a7.5 7.5 0 1 0 15 0 a7.5 7.5 0 1 0 -15 0zM503.79 62.2 a7.5 7.5 0 1 0 15 0 a7.5 7.5 0 1 0 -15 0zM438.83 99.7 a7.5 7.5 0 1 0 15 0 a7.5 7.5 0 1 0 -15 0zM373.88 62.2 a7.5 7.5 0 1 0 15 0 a7.5 7.5 0 1 0 -15 0zM373.88 -12.8 a7.5 7.5 0 1 0 15 0 a7.5 7.5 0 1 0 -15 0zM438.83 174.7 a7.5 7.5 0 1 0 15 0 a7.5 7.5 0 1 0 -15 0zM503.79 212.2 a7.5 7.5 0 1 0 15 0 a7.5 7.5 0 1 0 -15 0zM503.79 287.2 a7.5 7.5 0 1 0 15 0 a7.5 7.5 0 1 0 -15 0zM568.74 324.7 a7.5 7.5 0 1 0 15 0 a7.5 7.5 0 1 0 -15 0zM568.74 399.7 a7.5 7.5 0 1 0 15 0 a7.5 7.5 0 1 0 -15 0zM503.79 437.2 a7.5 7.5 0 1 0 15 0 a7.5 7.5 0 1 0 -15 0zM503.79 512.2 a7.5 7.5 0 1 0 15 0 a7.5 7.5 0 1 0 -15 0zM438.83 549.7 a7.5 7.5 0 1 0 15 0 a7.5 7.5 0 1 0 -15 0zM373.88 512.2 a7.5 7.5 0 1 0 15 0 a7.5 7.5 0 1 0 -15 0zM568.74 549.7 a7.5 7.5 0 1 0 15 0 a7.5 7.5 0 1 0 -15 0zM568.74 624.7 a7.5 7.5 0 1 0 15 0 a7.5 7.5 0 1 0 -15 0zM503.79 662.2 a7.5 7.5 0 1 0 15 0 a7.5 7.5 0 1 0 -15 0zM438.83 624.7 a7.5 7.5 0 1 0 15 0 a7.5 7.5 0 1 0 -15 0zM568.74 -50.3 a7.5 7.5 0 1 0 15 0 a7.5 7.5 0 1 0 -15 0zM633.69 -12.8 a7.5 7.5 0 1 0 15 0 a7.5 7.5 0 1 0 -15 0zM633.69 62.2 a7.5 7.5 0 1 0 15 0 a7.5 7.5 0 1 0 -15 0zM568.74 99.7 a7.5 7.5 0 1 0 15 0 a7.5 7.5 0 1 0 -15 0zM698.65 99.7 a7.5 7.5 0 1 0 15 0 a7.5 7.5 0 1 0 -15 0zM698.65 174.7 a7.5 7.5 0 1 0 15 0 a7.5 7.5 0 1 0 -15 0zM633.69 212.2 a7.5 7.5 0 1 0 15 0 a7.5 7.5 0 1 0 -15 0zM568.74 174.7 a7.5 7.5 0 1 0 15 0 a7.5 7.5 0 1 0 -15 0zM633.69 287.2 a7.5 7.5 0 1 0 15 0 a7.5 7.5 0 1 0 -15 0zM698.65 324.7 a7.5 7.5 0 1 0 15 0 a7.5 7.5 0 1 0 -15 0zM698.65 399.7 a7.5 7.5 0 1 0 15 0 a7.5 7.5 0 1 0 -15 0zM633.69 437.2 a7.5 7.5 0 1 0 15 0 a7.5 7.5 0 1 0 -15 0zM633.69 512.2 a7.5 7.5 0 1 0 15 0 a7.5 7.5 0 1 0 -15 0zM763.6 212.2 a7.5 7.5 0 1 0 15 0 a7.5 7.5 0 1 0 -15 0zM763.6 287.2 a7.5 7.5 0 1 0 15 0 a7.5 7.5 0 1 0 -15 0zM893.51 287.2 a7.5 7.5 0 1 0 15 0 a7.5 7.5 0 1 0 -15 0zM958.46 324.7 a7.5 7.5 0 1 0 15 0 a7.5 7.5 0 1 0 -15 0zM958.46 399.7 a7.5 7.5 0 1 0 15 0 a7.5 7.5 0 1 0 -15 0zM893.51 437.2 a7.5 7.5 0 1 0 15 0 a7.5 7.5 0 1 0 -15 0zM828.55 399.7 a7.5 7.5 0 1 0 15 0 a7.5 7.5 0 1 0 -15 0zM828.55 324.7 a7.5 7.5 0 1 0 15 0 a7.5 7.5 0 1 0 -15 0zM893.51 512.2 a7.5 7.5 0 1 0 15 0 a7.5 7.5 0 1 0 -15 0zM828.55 549.7 a7.5 7.5 0 1 0 15 0 a7.5 7.5 0 1 0 -15 0zM763.6 512.2 a7.5 7.5 0 1 0 15 0 a7.5 7.5 0 1 0 -15 0zM763.6 437.2 a7.5 7.5 0 1 0 15 0 a7.5 7.5 0 1 0 -15 0zM958.46 549.7 a7.5 7.5 0 1 0 15 0 a7.5 7.5 0 1 0 -15 0zM958.46 624.7 a7.5 7.5 0 1 0 15 0 a7.5 7.5 0 1 0 -15 0zM893.51 662.2 a7.5 7.5 0 1 0 15 0 a7.5 7.5 0 1 0 -15 0zM828.55 624.7 a7.5 7.5 0 1 0 15 0 a7.5 7.5 0 1 0 -15 0zM958.46 -50.3 a7.5 7.5 0 1 0 15 0 a7.5 7.5 0 1 0 -15 0zM1023.42 -12.8 a7.5 7.5 0 1 0 15 0 a7.5 7.5 0 1 0 -15 0zM1023.42 62.2 a7.5 7.5 0 1 0 15 0 a7.5 7.5 0 1 0 -15 0zM958.46 99.7 a7.5 7.5 0 1 0 15 0 a7.5 7.5 0 1 0 -15 0zM893.51 62.2 a7.5 7.5 0 1 0 15 0 a7.5 7.5 0 1 0 -15 0zM893.51 -12.8 a7.5 7.5 0 1 0 15 0 a7.5 7.5 0 1 0 -15 0zM1023.42 287.2 a7.5 7.5 0 1 0 15 0 a7.5 7.5 0 1 0 -15 0zM1088.37 324.7 a7.5 7.5 0 1 0 15 0 a7.5 7.5 0 1 0 -15 0zM1088.37 399.7 a7.5 7.5 0 1 0 15 0 a7.5 7.5 0 1 0 -15 0zM1023.42 437.2 a7.5 7.5 0 1 0 15 0 a7.5 7.5 0 1 0 -15 0zM1088.37 174.7 a7.5 7.5 0 1 0 15 0 a7.5 7.5 0 1 0 -15 0zM1153.32 212.2 a7.5 7.5 0 1 0 15 0 a7.5 7.5 0 1 0 -15 0zM1153.32 287.2 a7.5 7.5 0 1 0 15 0 a7.5 7.5 0 1 0 -15 0zM1023.42 212.2 a7.5 7.5 0 1 0 15 0 a7.5 7.5 0 1 0 -15 0zM1218.28 324.7 a7.5 7.5 0 1 0 15 0 a7.5 7.5 0 1 0 -15 0zM1218.28 399.7 a7.5 7.5 0 1 0 15 0 a7.5 7.5 0 1 0 -15 0zM1153.32 437.2 a7.5 7.5 0 1 0 15 0 a7.5 7.5 0 1 0 -15 0zM1153.32 512.2 a7.5 7.5 0 1 0 15 0 a7.5 7.5 0 1 0 -15 0zM1088.37 549.7 a7.5 7.5 0 1 0 15 0 a7.5 7.5 0 1 0 -15 0zM1023.42 512.2 a7.5 7.5 0 1 0 15 0 a7.5 7.5 0 1 0 -15 0z" fill="url(&quot;#SvgjsLinearGradient10778&quot;)"></path>
        <path d="M7.93 -25.23L51.23 -0.23L51.23 49.77L7.93 74.77L-35.37 49.77L-35.37 -0.23zM51.23 49.77L94.53 74.77L94.53 124.77L51.23 149.77L7.93 124.77L7.93 74.77zM7.93 274.77L51.23 299.77L51.23 349.77L7.93 374.77L-35.37 349.77L-35.37 299.77zM51.23 349.77L94.53 374.77L94.53 424.77L51.23 449.77L7.93 424.77L7.93 374.77zM7.93 424.77L51.23 449.77L51.23 499.77L7.93 524.77L-35.37 499.77L-35.37 449.77zM137.84 199.77L181.14 224.77L181.14 274.77L137.84 299.77L94.53 274.77L94.53 224.77zM94.53 274.77L137.84 299.77L137.84 349.77L94.53 374.77L51.23 349.77L51.23 299.77zM94.53 424.77L137.84 449.77L137.84 499.77L94.53 524.77L51.23 499.77L51.23 449.77zM137.84 499.77L181.14 524.77L181.14 574.77L137.84 599.77L94.53 574.77L94.53 524.77zM181.14 -25.23L224.44 -0.23L224.44 49.77L181.14 74.77L137.84 49.77L137.84 -0.23zM224.44 49.77L267.75 74.77L267.75 124.77L224.44 149.77L181.14 124.77L181.14 74.77zM181.14 274.77L224.44 299.77L224.44 349.77L181.14 374.77L137.84 349.77L137.84 299.77zM311.05 49.77L354.35 74.77L354.35 124.77L311.05 149.77L267.75 124.77L267.75 74.77zM267.75 274.77L311.05 299.77L311.05 349.77L267.75 374.77L224.44 349.77L224.44 299.77zM311.05 349.77L354.35 374.77L354.35 424.77L311.05 449.77L267.75 424.77L267.75 374.77zM397.65 49.77L440.96 74.77L440.96 124.77L397.65 149.77L354.35 124.77L354.35 74.77zM354.35 124.77L397.65 149.77L397.65 199.77L354.35 224.77L311.05 199.77L311.05 149.77zM354.35 424.77L397.65 449.77L397.65 499.77L354.35 524.77L311.05 499.77L311.05 449.77zM440.96 124.77L484.26 149.77L484.26 199.77L440.96 224.77L397.65 199.77L397.65 149.77zM484.26 199.77L527.56 224.77L527.56 274.77L484.26 299.77L440.96 274.77L440.96 224.77zM440.96 274.77L484.26 299.77L484.26 349.77L440.96 374.77L397.65 349.77L397.65 299.77zM484.26 349.77L527.56 374.77L527.56 424.77L484.26 449.77L440.96 424.77L440.96 374.77zM484.26 499.77L527.56 524.77L527.56 574.77L484.26 599.77L440.96 574.77L440.96 524.77zM527.56 -25.23L570.86 -0.23L570.86 49.77L527.56 74.77L484.26 49.77L484.26 -0.23zM570.86 49.77L614.16 74.77L614.16 124.77L570.86 149.77L527.56 124.77L527.56 74.77zM570.86 199.77L614.16 224.77L614.16 274.77L570.86 299.77L527.56 274.77L527.56 224.77zM527.56 274.77L570.86 299.77L570.86 349.77L527.56 374.77L484.26 349.77L484.26 299.77zM527.56 424.77L570.86 449.77L570.86 499.77L527.56 524.77L484.26 499.77L484.26 449.77zM614.16 124.77L657.47 149.77L657.47 199.77L614.16 224.77L570.86 199.77L570.86 149.77zM657.47 199.77L700.77 224.77L700.77 274.77L657.47 299.77L614.16 274.77L614.16 224.77zM614.16 274.77L657.47 299.77L657.47 349.77L614.16 374.77L570.86 349.77L570.86 299.77zM657.47 349.77L700.77 374.77L700.77 424.77L657.47 449.77L614.16 424.77L614.16 374.77zM614.16 424.77L657.47 449.77L657.47 499.77L614.16 524.77L570.86 499.77L570.86 449.77zM700.77 -25.23L744.07 -0.23L744.07 49.77L700.77 74.77L657.47 49.77L657.47 -0.23zM744.07 499.77L787.38 524.77L787.38 574.77L744.07 599.77L700.77 574.77L700.77 524.77zM830.68 49.77L873.98 74.77L873.98 124.77L830.68 149.77L787.38 124.77L787.38 74.77zM830.68 199.77L873.98 224.77L873.98 274.77L830.68 299.77L787.38 274.77L787.38 224.77zM787.38 274.77L830.68 299.77L830.68 349.77L787.38 374.77L744.07 349.77L744.07 299.77zM830.68 349.77L873.98 374.77L873.98 424.77L830.68 449.77L787.38 424.77L787.38 374.77zM830.68 499.77L873.98 524.77L873.98 574.77L830.68 599.77L787.38 574.77L787.38 524.77zM873.98 -25.23L917.28 -0.23L917.28 49.77L873.98 74.77L830.68 49.77L830.68 -0.23zM917.28 49.77L960.59 74.77L960.59 124.77L917.28 149.77L873.98 124.77L873.98 74.77zM917.28 499.77L960.59 524.77L960.59 574.77L917.28 599.77L873.98 574.77L873.98 524.77zM960.59 -25.23L1003.89 -0.23L1003.89 49.77L960.59 74.77L917.28 49.77L917.28 -0.23zM1003.89 49.77L1047.19 74.77L1047.19 124.77L1003.89 149.77L960.59 124.77L960.59 74.77zM960.59 124.77L1003.89 149.77L1003.89 199.77L960.59 224.77L917.28 199.77L917.28 149.77zM960.59 274.77L1003.89 299.77L1003.89 349.77L960.59 374.77L917.28 349.77L917.28 299.77zM960.59 424.77L1003.89 449.77L1003.89 499.77L960.59 524.77L917.28 499.77L917.28 449.77zM1003.89 499.77L1047.19 524.77L1047.19 574.77L1003.89 599.77L960.59 574.77L960.59 524.77zM1047.19 -25.23L1090.49 -0.23L1090.49 49.77L1047.19 74.77L1003.89 49.77L1003.89 -0.23z" stroke="url(&quot;#SvgjsLinearGradient10779&quot;)" stroke-width="2"></path>
    </g>
    <defs>
        <mask id="SvgjsMask10776">
            <rect width="1100" height="560" fill="#ffffff"></rect>
        </mask>
        <linearGradient x1="12.27%" y1="-24.11%" x2="87.73%" y2="124.11%" gradientUnits="userSpaceOnUse" id="SvgjsLinearGradient10777">
            <stop stop-color="rgba(207, 119, 119, 1)" offset="0"></stop>
            <stop stop-color="rgba(0, 0, 0, 1)" offset="1"></stop>
        </linearGradient>
        <linearGradient x1="134.97" y1="-135.016" x2="965.0300000000001" y2="695.0160000000001" gradientUnits="userSpaceOnUse" id="SvgjsLinearGradient10778">
            <stop stop-color="rgba(0, 0, 0, 1)" offset="0"></stop>
            <stop stop-color="rgba(131, 68, 68, 1)" offset="1"></stop>
        </linearGradient>
        <linearGradient x1="134.97" y1="-135.016" x2="965.0300000000001" y2="695.0160000000001" gradientUnits="userSpaceOnUse" id="SvgjsLinearGradient10779">
            <stop stop-color="rgba(233, 224, 224, 1)" offset="0"></stop>
            <stop stop-color="rgba(255, 0, 0, 1)" offset="1"></stop>
        </linearGradient>
    </defs>
</svg>